<svg id="Layer_1" data-name="Layer 1" xmlns="http://www.w3.org/2000/svg" viewBox="0 0 1000 265"><defs><style>.cls-1{fill:#111;}</style></defs><path class="cls-1" d="M146.92,129.54,120.36,83.48,90.47,31.6a5.64,5.64,0,0,0-9.75,0L23.86,129.54l-23,40.05A5.59,5.59,0,0,0,5.6,178.1H49.39a5.61,5.61,0,0,0,5-2.9L77.19,136l3.53-6c.21-.21.42-.42.42-.62a5.62,5.62,0,0,1,9.33.62l23.66,40.88,4.36,7.47c.21.41.41.83.62,1.24a5.71,5.71,0,0,1-5.39,7.27H61.84a5.58,5.58,0,0,0-5,2.9l-21.79,38a5.68,5.68,0,0,0,5,8.5H198.38a5.75,5.75,0,0,0,5-8.5Z"/><path class="cls-1" d="M296.53,81.61,254,182.46h29.26l7.06-17.85h38.8l7.26,17.85h29.89L323.72,81.61ZM298.4,143l11.21-28.43L320.81,143Z"/><path class="cls-1" d="M469,138.67c0,13.91-7.26,20.55-18.47,20.55S432,152.37,432,137.84V82.23H403.81v56.24c.21,31.33,18.06,45.86,46.49,45.86s46.89-14.12,46.89-46.49V82.23H469Z"/><path class="cls-1" d="M588.71,82.23H549.9V182.46h38c36.1,0,57.06-21.38,57.06-50.43v-.41C645.36,103,624.61,82.23,588.71,82.23Zm28.22,50.22c0,16.18-11,25.31-27.6,25.31H578.12V106.92h11.21c16.6,0,27.6,9.34,27.6,25.32Z"/><rect class="cls-1" x="694.74" y="82.23" width="27.81" height="100.23"/><path class="cls-1" d="M841,138.67c0,13.91-7.26,20.55-18.47,20.55s-18.47-6.85-18.47-21.38V82.23H775.88v56.24c0,31.33,17.85,45.86,46.48,45.86,28.43,0,46.9-14.12,46.9-46.49V82.23H841Z"/><path class="cls-1" d="M963.05,120c-13.9-3.12-17.43-5.19-17.43-9.76V110c0-3.53,3.32-6.44,10-6.44,8.93,0,18.89,3.53,28,10l13.9-19.71c-10.79-8.71-24.28-13.28-41.29-13.28-24.07,0-38.81,13.49-38.81,32.16v.42c0,20.54,16.4,26.77,37.77,31.54,13.49,3.11,17,5.4,17,9.55v.41c0,4.36-3.94,6.85-11.41,6.85-11.62,0-22.62-4.15-32.58-12l-15.56,18.47c12.45,11,29.26,16.6,46.9,16.6,24.28,0,40.46-12.24,40.46-32.58v-.2C1000.41,132.45,986.09,125.19,963.05,120Z"/></svg>