<svg width="18" height="18" viewBox="0 0 18 18" fill="none" xmlns="http://www.w3.org/2000/svg">
<path d="M2 18C1.45 18 0.979 17.8043 0.587 17.413C0.195667 17.021 0 16.55 0 16V2C0 1.45 0.195667 0.979 0.587 0.587C0.979 0.195667 1.45 0 2 0H16C16.55 0 17.021 0.195667 17.413 0.587C17.8043 0.979 18 1.45 18 2V16C18 16.55 17.8043 17.021 17.413 17.413C17.021 17.8043 16.55 18 16 18H2ZM3 9.575L6.3 6.275C6.4 6.175 6.50833 6.104 6.625 6.062C6.74167 6.02067 6.86667 6 7 6C7.13333 6 7.25833 6.02067 7.375 6.062C7.49167 6.104 7.6 6.175 7.7 6.275L11 9.575L14.3 6.275C14.4 6.175 14.5083 6.104 14.625 6.062C14.7417 6.02067 14.8667 6 15 6C15.1333 6 15.2583 6.02067 15.375 6.062C15.4917 6.104 15.6 6.175 15.7 6.275L16 6.575V2H2V8.575L3 9.575ZM2 16H16V9.4L15 8.4L11.7 11.7C11.6167 11.7833 11.5127 11.85 11.388 11.9C11.2627 11.95 11.1333 11.975 11 11.975C10.8667 11.975 10.7417 11.95 10.625 11.9C10.5083 11.85 10.4 11.7833 10.3 11.7L7 8.4L3.7 11.7C3.6 11.8 3.49167 11.8707 3.375 11.912C3.25833 11.954 3.13333 11.975 3 11.975C2.86667 11.975 2.74167 11.954 2.625 11.912C2.50833 11.8707 2.4 11.8 2.3 11.7L2 11.4V16ZM2 16V9.4V11.4V2V11.4V16Z" fill="white"/>
</svg>
